<?xml version="1.0" encoding="UTF-8"?>
<svg version="1.1" xmlns="http://www.w3.org/2000/svg" width="100%" height="auto" viewBox="0 0 1280 908">
<path d="M0 0 C422.4 0 844.8 0 1280 0 C1280 299.64 1280 599.28 1280 908 C857.6 908 435.2 908 0 908 C0 608.36 0 308.72 0 0 Z " fill="#FEFEFE" transform="translate(0,0)"/>
<path d="M0 0 C1.00919998 -0.00287018 2.01839996 -0.00574036 3.05818176 -0.00869751 C5.18552209 -0.01073485 7.31288128 -0.00522815 9.44018555 0.00732422 C12.70598834 0.02343236 15.9705629 0.00743818 19.23632812 -0.01171875 C21.30338816 -0.00973724 23.37044742 -0.00589549 25.4375 0 C26.90777901 -0.00910904 26.90777901 -0.00910904 28.40776062 -0.0184021 C29.31242569 -0.00894562 30.21709076 0.00051086 31.14916992 0.01025391 C31.94683273 0.01264069 32.74449554 0.01502747 33.56632996 0.01748657 C34.21088638 0.14320038 34.85544281 0.26891418 35.51953125 0.3984375 C37.51953125 3.3984375 37.51953125 3.3984375 37.14453125 6.5859375 C36.93828125 7.5140625 36.73203125 8.4421875 36.51953125 9.3984375 C35.52953125 9.3984375 34.53953125 9.3984375 33.51953125 9.3984375 C33.51953125 10.0584375 33.51953125 10.7184375 33.51953125 11.3984375 C32.88917969 11.49253906 32.25882813 11.58664062 31.609375 11.68359375 C30.91972656 11.91949219 30.23007812 12.15539062 29.51953125 12.3984375 C28.25582681 15.42033943 27.37370951 18.24516262 26.51953125 21.3984375 C26.15838694 22.69814893 25.79633918 23.99760953 25.43359375 25.296875 C24.80914274 27.53997209 24.18708765 29.78363021 23.57104492 32.02905273 C21.26730803 40.40588866 18.75565073 48.71765745 16.23657227 57.03173828 C13.86954974 64.84444388 11.56524323 72.6713539 9.33203125 80.5234375 C9.05939453 81.47992188 8.78675781 82.43640625 8.50585938 83.421875 C7.84313559 85.7472216 7.18103487 88.07274356 6.51953125 90.3984375 C8.5619638 90.31055835 10.60352738 90.20237061 12.64453125 90.0859375 C13.78148437 90.02792969 14.9184375 89.96992188 16.08984375 89.91015625 C23.09268834 88.8653127 26.70209362 85.54943717 30.95703125 80.1484375 C31.91043233 78.97986755 32.86615473 77.81318756 33.82421875 76.6484375 C34.28280273 76.08898437 34.74138672 75.52953125 35.21386719 74.953125 C43.05025788 65.62213474 43.05025788 65.62213474 47.76171875 65.1953125 C49.06496094 65.17210937 49.06496094 65.17210937 50.39453125 65.1484375 C51.25820313 65.12265625 52.121875 65.096875 53.01171875 65.0703125 C56.22940521 65.49131821 57.43922329 65.86336454 59.51953125 68.3984375 C60.74756359 75.00633763 58.73061139 81.38806628 56.76953125 87.6484375 C56.516875 88.51984375 56.26421875 89.39125 56.00390625 90.2890625 C54.55344182 95.04658583 53.15295711 98.82409173 49.51953125 102.3984375 C48.85953125 102.3984375 48.19953125 102.3984375 47.51953125 102.3984375 C47.51953125 103.0584375 47.51953125 103.7184375 47.51953125 104.3984375 C44.29043515 106.01298555 40.76094467 105.52759531 37.21435547 105.51196289 C36.35574921 105.51210892 35.49714294 105.51225494 34.61251831 105.5124054 C31.76639301 105.51170713 28.92033266 105.50391875 26.07421875 105.49609375 C24.10409582 105.49422926 22.13397243 105.49280551 20.16384888 105.49180603 C14.97213466 105.48798326 9.78044831 105.47815501 4.58874512 105.46710205 C-0.70645775 105.45688278 -6.00166512 105.4523073 -11.296875 105.44726562 C-21.69141851 105.43653254 -32.08594131 105.41945898 -42.48046875 105.3984375 C-42.81046875 103.4184375 -43.14046875 101.4384375 -43.48046875 99.3984375 C-44.14046875 99.3984375 -44.80046875 99.3984375 -45.48046875 99.3984375 C-45.74859375 100.0171875 -46.01671875 100.6359375 -46.29296875 101.2734375 C-47.48046875 103.3984375 -47.48046875 103.3984375 -50.48046875 105.3984375 C-53.32006869 105.58293945 -56.06012698 105.65062658 -58.89916992 105.62548828 C-59.75792221 105.62578033 -60.6166745 105.62607239 -61.50144958 105.62637329 C-64.34221472 105.62497905 -67.18271814 105.6094134 -70.0234375 105.59375 C-71.99213009 105.59002021 -73.96082454 105.58717308 -75.92951965 105.58517456 C-81.11303831 105.57753546 -86.29644503 105.55788457 -91.47991943 105.5357666 C-96.76849859 105.51531415 -102.05709582 105.50617413 -107.34570312 105.49609375 C-117.72400754 105.47463897 -128.10222884 105.44049965 -138.48046875 105.3984375 C-139.12109375 102.5703125 -139.12109375 102.5703125 -139.48046875 99.3984375 C-137.04801864 96.42544292 -134.67133539 94.52568193 -131.48046875 92.3984375 C-130.36815807 89.85347067 -129.42273224 87.39772381 -128.54296875 84.7734375 C-128.27991943 84.00781494 -128.01687012 83.24219238 -127.74584961 82.45336914 C-125.91488876 77.00313231 -124.41176279 71.5153154 -123.09008789 65.91796875 C-121.59321413 59.64158999 -119.80179271 53.46259269 -117.98046875 47.2734375 C-117.67608887 46.23743408 -117.37170898 45.20143066 -117.05810547 44.1340332 C-115.97704662 40.46153523 -114.89220305 36.79016503 -113.80615234 33.11914062 C-111.68393239 25.92552876 -109.77493031 18.7904943 -108.48046875 11.3984375 C-109.14046875 11.3984375 -109.80046875 11.3984375 -110.48046875 11.3984375 C-111.86171893 8.63593714 -111.67126181 6.45112651 -111.48046875 3.3984375 C-108.98785557 0.90582432 -108.22540085 1.14600998 -104.78710938 1.13964844 C-103.32549377 1.13019196 -103.32549377 1.13019196 -101.83435059 1.12054443 C-100.25152283 1.12661713 -100.25152283 1.12661713 -98.63671875 1.1328125 C-97.55668579 1.13089905 -96.47665283 1.1289856 -95.3638916 1.12701416 C-93.07739021 1.12565143 -90.79088111 1.12935398 -88.50439453 1.13769531 C-84.9949412 1.14839338 -81.48599982 1.13780277 -77.9765625 1.125 C-75.75911345 1.12632158 -73.54166472 1.12888394 -71.32421875 1.1328125 C-70.26900024 1.12876404 -69.21378174 1.12471558 -68.12658691 1.12054443 C-67.15217651 1.12684875 -66.17776611 1.13315308 -65.17382812 1.13964844 C-64.31382202 1.14123962 -63.45381592 1.14283081 -62.56774902 1.14447021 C-60.48046875 1.3984375 -60.48046875 1.3984375 -58.48046875 3.3984375 C-58.48046875 4.7184375 -58.48046875 6.0384375 -58.48046875 7.3984375 C-59.14046875 7.3984375 -59.80046875 7.3984375 -60.48046875 7.3984375 C-60.48046875 8.0584375 -60.48046875 8.7184375 -60.48046875 9.3984375 C-61.14046875 9.3984375 -61.80046875 9.3984375 -62.48046875 9.3984375 C-62.48046875 10.0584375 -62.48046875 10.7184375 -62.48046875 11.3984375 C-63.25003906 11.78644531 -64.01960937 12.17445313 -64.8125 12.57421875 C-68.32356898 14.97490574 -69.04552372 17.67088008 -70.16796875 21.5859375 C-70.36712891 22.22080078 -70.56628906 22.85566406 -70.77148438 23.50976562 C-71.94536219 27.31620876 -72.92214679 31.15690472 -73.87084961 35.02563477 C-75.27033717 40.47281921 -76.86589009 45.86821678 -78.41796875 51.2734375 C-78.76537109 52.48902344 -79.11277344 53.70460938 -79.47070312 54.95703125 C-80.98334313 60.2384523 -82.50646347 65.51510161 -84.09765625 70.7734375 C-85.37509803 75.0032566 -86.54155461 79.25083214 -87.66796875 83.5234375 C-87.84521484 84.19375 -88.02246094 84.8640625 -88.20507812 85.5546875 C-88.63168639 87.16888093 -89.05630478 88.78360006 -89.48046875 90.3984375 C-86.93417555 90.19582272 -84.39702021 89.96242201 -81.85546875 89.7109375 C-80.78619141 89.63069336 -80.78619141 89.63069336 -79.6953125 89.54882812 C-72.99332221 88.84173741 -69.92006848 86.21410201 -65.50390625 81.1171875 C-64.95992187 80.385 -64.4159375 79.6528125 -63.85546875 78.8984375 C-62.97181641 77.73248047 -62.97181641 77.73248047 -62.0703125 76.54296875 C-60.84801051 74.89421251 -59.63169413 73.24101756 -58.41796875 71.5859375 C-55.37715698 68.15276293 -52.68709141 65.71267174 -48.01171875 65.046875 C-44.31531688 64.92728553 -41.5636805 64.88620686 -38.17578125 66.48828125 C-36.15834209 68.76138666 -35.97564669 70.22872258 -36.15234375 73.22705078 C-36.85309557 77.86431769 -38.1809075 82.33723111 -39.48046875 86.8359375 C-39.76664063 87.85365234 -40.0528125 88.87136719 -40.34765625 89.91992188 C-41.05054179 92.41516553 -41.76165081 94.90774607 -42.48046875 97.3984375 C-37.56942518 94.5707553 -34.25126169 92.01483253 -32.44921875 86.51171875 C-31.93077479 84.58566255 -31.44273966 82.65124218 -30.98046875 80.7109375 C-30.41431561 78.56990066 -29.84654182 76.42929186 -29.27734375 74.2890625 C-28.98923828 73.16951172 -28.70113281 72.04996094 -28.40429688 70.89648438 C-26.81491619 64.87834312 -25.01403536 58.92381454 -23.23046875 52.9609375 C-22.90111328 51.84307861 -22.57175781 50.72521973 -22.23242188 49.57348633 C-20.83399378 44.83877772 -19.4103631 40.12598635 -17.81640625 35.453125 C-16.75144638 32.31142202 -15.93163269 29.23459623 -15.35546875 25.9609375 C-14.57535926 21.58821852 -14.57535926 21.58821852 -13.48046875 19.3984375 C-13.01458593 13.51678014 -13.01458593 13.51678014 -15.48046875 8.3984375 C-15.91796875 5.8984375 -15.91796875 5.8984375 -15.48046875 3.3984375 C-10.90373014 -0.58927503 -5.73547887 -0.03575539 0 0 Z " fill="#03BE63" transform="translate(810.48046875,412.6015625)"/>
<path d="M0 0 C1.47057839 0.00031709 2.94118001 0.01164091 4.41162109 0.03173828 C5.18565277 0.03456818 5.95968445 0.03739807 6.75717163 0.04031372 C9.23329016 0.05152325 11.70904909 0.07662875 14.18505859 0.10205078 C15.86213671 0.1120796 17.53922049 0.12120562 19.21630859 0.12939453 C23.33103082 0.15146504 27.44548371 0.18599977 31.56005859 0.22705078 C31.56005859 0.88705078 31.56005859 1.54705078 31.56005859 2.22705078 C32.22005859 2.22705078 32.88005859 2.22705078 33.56005859 2.22705078 C36.90832759 8.3739809 38.89579283 14.33461837 40.62255859 21.10205078 C41.11216956 22.97478027 41.60304856 24.84717872 42.09521484 26.71923828 C42.3346582 27.63423096 42.57410156 28.54922363 42.82080078 29.49194336 C43.77429757 33.01969254 44.82817122 36.51278308 45.89282227 40.00830078 C46.99455768 43.67188347 47.94608422 47.37348234 48.91162109 51.07470703 C49.36313257 53.18781597 49.36313257 53.18781597 50.56005859 54.22705078 C50.60086642 56.22663442 50.60260216 58.22750332 50.56005859 60.22705078 C53.88878278 56.97994155 56.9506356 53.65589789 59.87255859 50.03955078 C60.65115234 49.07791016 61.42974609 48.11626953 62.23193359 47.12548828 C63.00021484 46.16900391 63.76849609 45.21251953 64.56005859 44.22705078 C65.24583984 43.37369141 65.93162109 42.52033203 66.63818359 41.64111328 C68.61596117 39.17278457 70.58848519 36.70033671 72.56005859 34.22705078 C73.89307378 32.56012964 75.22640825 30.89346379 76.56005859 29.22705078 C77.22005859 28.40205078 77.88005859 27.57705078 78.56005859 26.72705078 C84.56005859 19.22705078 84.56005859 19.22705078 86.55615234 16.75048828 C87.92668909 15.02462719 89.27209059 13.27858589 90.59521484 11.51611328 C91.59875 10.19740234 91.59875 10.19740234 92.62255859 8.85205078 C93.21166016 8.06056641 93.80076172 7.26908203 94.40771484 6.45361328 C98.19190554 2.53893325 102.1777178 0.06626864 107.62768555 -0.25878906 C109.1012056 -0.27149209 110.57503908 -0.26230464 112.04833984 -0.23388672 C113.2249543 -0.23251205 113.2249543 -0.23251205 114.42533875 -0.23110962 C116.06999832 -0.22510516 117.71464859 -0.20945488 119.35913086 -0.18457031 C121.88289315 -0.14779864 124.40519556 -0.1435532 126.92919922 -0.14404297 C128.53142551 -0.13422029 130.13364185 -0.12256701 131.73583984 -0.10888672 C132.49101395 -0.10666107 133.24618805 -0.10443542 134.02424622 -0.10214233 C139.32781645 -0.00519136 139.32781645 -0.00519136 141.56005859 2.22705078 C141.56005859 5.10205078 141.56005859 5.10205078 140.56005859 8.22705078 C138.58684806 9.59971898 136.58462708 10.93132695 134.56005859 12.22705078 C132.04335465 16.51617028 130.63139478 20.94992885 129.37255859 25.72705078 C129.16969238 26.47535156 128.96682617 27.22365234 128.7578125 27.99462891 C128.01728132 30.73669776 127.28820151 33.48166602 126.56005859 36.22705078 C125.7182929 39.39041223 124.87647823 42.55376029 124.03395081 45.71691895 C123.15762399 49.00786097 122.28397064 52.29944238 121.41479492 55.59228516 C119.15078498 64.14011208 116.8654339 72.65200999 113.87255859 80.97705078 C112.68492762 84.52119163 112.12178121 87.45786528 112.56005859 91.22705078 C112.89005859 91.88705078 113.22005859 92.54705078 113.56005859 93.22705078 C114.91735058 95.94163476 114.69593598 98.23774835 114.56005859 101.22705078 C109.23026803 104.51845308 104.95133015 104.64035231 98.89208984 104.55517578 C97.97546066 104.55330261 97.05883148 104.55142944 96.11442566 104.54949951 C94.18554014 104.54280124 92.25666768 104.52893124 90.32788086 104.50830078 C87.37194222 104.47704426 84.41653705 104.46731587 81.46044922 104.46142578 C79.58348957 104.45225899 77.70653535 104.44188426 75.82958984 104.43017578 C74.9451973 104.4259259 74.06080475 104.42167603 73.14961243 104.41729736 C71.91769417 104.40288605 71.91769417 104.40288605 70.66088867 104.38818359 C69.57883904 104.37794159 69.57883904 104.37794159 68.47492981 104.36749268 C66.56005859 104.22705078 66.56005859 104.22705078 63.56005859 103.22705078 C62.87255859 100.41455078 62.87255859 100.41455078 62.56005859 97.22705078 C64.05370232 95.0695654 65.80296548 94.06705923 67.99755859 92.62158203 C71.20018696 89.62888205 72.21674901 86.62503042 73.43505859 82.53955078 C73.79796997 81.39292969 73.79796997 81.39292969 74.16821289 80.22314453 C77.33493821 70.04789537 80.11328594 59.7480612 82.89916992 49.46337891 C83.56005859 47.22705078 83.56005859 47.22705078 84.56005859 45.22705078 C81.35232658 48.36238606 78.37492931 51.54845136 75.56005859 55.03955078 C74.79435547 55.98701172 74.02865234 56.93447266 73.23974609 57.91064453 C72.81918945 58.43255371 72.39863281 58.95446289 71.96533203 59.4921875 C70.38406672 61.44431941 68.78914695 63.38483213 67.19287109 65.32470703 C66.02355965 66.75045497 64.85428863 68.17623608 63.68505859 69.60205078 C63.12560547 70.27985596 62.56615234 70.95766113 61.98974609 71.65600586 C59.71124398 74.44433664 57.63766959 77.0956295 55.80224609 80.20361328 C55.39232422 80.87134766 54.98240234 81.53908203 54.56005859 82.22705078 C53.90005859 82.22705078 53.24005859 82.22705078 52.56005859 82.22705078 C52.28532715 82.81800537 52.0105957 83.40895996 51.72753906 84.01782227 C50.60889664 86.13463433 49.43054412 87.75992904 47.88037109 89.57470703 C47.36345703 90.17992187 46.84654297 90.78513672 46.31396484 91.40869141 C45.50765625 92.3397168 45.50765625 92.3397168 44.68505859 93.28955078 C44.15525391 93.91410156 43.62544922 94.53865234 43.07958984 95.18212891 C36.33268414 103.02561606 36.33268414 103.02561606 31.98193359 103.52001953 C31.10021484 103.48521484 30.21849609 103.45041016 29.31005859 103.41455078 C27.97201172 103.37394531 27.97201172 103.37394531 26.60693359 103.33251953 C25.93146484 103.29771484 25.25599609 103.26291016 24.56005859 103.22705078 C20.89668736 97.73199393 19.26027933 92.19312715 17.58740234 85.82470703 C16.85809253 83.27073615 16.08776512 80.90835433 15.13427734 78.44580078 C13.27337071 73.60230517 11.8521582 68.65288381 10.43505859 63.66455078 C10.17080078 62.75769531 9.90654297 61.85083984 9.63427734 60.91650391 C8.23530803 56.02011132 7.12944395 51.28902546 6.56005859 46.22705078 C5.90005859 46.22705078 5.24005859 46.22705078 4.56005859 46.22705078 C4.47755859 47.29955078 4.39505859 48.37205078 4.31005859 49.47705078 C3.72912928 54.15721373 2.23141155 58.34612739 0.67724609 62.78173828 C-0.8383013 67.45555926 -1.9938128 72.19381186 -3.13256836 76.97119141 C-4.34938037 82.04592871 -4.34938037 82.04592871 -5.43994141 84.22705078 C-5.63732864 86.3366014 -5.63732864 86.3366014 -5.62744141 88.66455078 C-5.64871094 89.83824219 -5.64871094 89.83824219 -5.67041016 91.03564453 C-5.58080205 93.51911065 -5.58080205 93.51911065 -3.43994141 96.22705078 C-3.00244141 98.72705078 -3.00244141 98.72705078 -3.43994141 101.22705078 C-7.96508762 105.12835997 -12.8546806 104.64134892 -18.50244141 104.53955078 C-19.40027344 104.54277344 -20.29810547 104.54599609 -21.22314453 104.54931641 C-25.57765973 104.51370327 -28.592995 104.4303966 -32.43994141 102.22705078 C-32.66650391 99.89501953 -32.66650391 99.89501953 -32.43994141 97.22705078 C-30.90087891 95.84033203 -30.90087891 95.84033203 -28.81494141 94.53955078 C-22.71744521 89.52438695 -21.28936191 82.26360046 -19.21826172 74.96484375 C-18.37929305 72.01371618 -17.5019478 69.0756523 -16.61962891 66.13720703 C-14.22419873 58.09837949 -11.87180811 50.0655384 -9.86962891 41.91845703 C-8.83683542 37.71913441 -7.64959859 33.63466666 -6.25244141 29.53955078 C-4.40567525 23.66091348 -3.38774013 18.34682349 -4.94775391 12.23876953 C-5.78023463 8.83616973 -5.6092115 5.72529944 -5.43994141 2.22705078 C-3.43994141 0.22705078 -3.43994141 0.22705078 0 0 Z " fill="#03BE63" transform="translate(448.43994140625,413.77294921875)"/>
<path d="M0 0 C3.43631306 2.8862172 5.62828239 5.71677299 6.4375 10.1875 C7.00878349 17.5111671 6.65269303 24.20209017 4.4375 31.1875 C3.85043994 33.22809821 3.26764003 35.26992366 2.6875 37.3125 C2.34203125 38.50875 1.9965625 39.705 1.640625 40.9375 C0.72570443 44.1381713 -0.15101854 47.34787963 -1.015625 50.5625 C-1.53122964 52.47917214 -2.04685494 54.39583873 -2.5625 56.3125 C-2.94716431 57.74299683 -2.94716431 57.74299683 -3.33959961 59.20239258 C-4.69798563 64.19901874 -6.15425191 69.11307542 -7.875 74 C-9.54224334 78.76651727 -10.22686567 83.15298506 -10.5625 88.1875 C-9.9025 88.1875 -9.2425 88.1875 -8.5625 88.1875 C-7.20810332 90.89629335 -7.49748549 93.19683268 -7.5625 96.1875 C-10.61295855 97.95157549 -12.80511727 98.4364972 -16.31518555 98.43041992 C-17.25263107 98.43349655 -18.1900766 98.43657318 -19.15592957 98.43974304 C-20.160215 98.43255753 -21.16450043 98.42537201 -22.19921875 98.41796875 C-23.2344014 98.41751053 -24.26958405 98.41705231 -25.33613586 98.4165802 C-27.52073312 98.4135621 -29.70532831 98.40568905 -31.88989258 98.39331055 C-35.24763538 98.37501289 -38.60510309 98.37280119 -41.96289062 98.37304688 C-44.08333574 98.36813318 -46.20377897 98.36230551 -48.32421875 98.35546875 C-49.83975594 98.35379951 -49.83975594 98.35379951 -51.38591003 98.35209656 C-52.31389908 98.34571671 -53.24188812 98.33933685 -54.19799805 98.33276367 C-55.01866257 98.32895187 -55.83932709 98.32514008 -56.68486023 98.32121277 C-58.5625 98.1875 -58.5625 98.1875 -59.5625 97.1875 C-60.0625 94.5 -60.0625 94.5 -59.5625 91.1875 C-58.140625 89.73828125 -58.140625 89.73828125 -56.3125 88.3125 C-48.97920651 82.59075689 -48.01579423 75.18291218 -45.5625 66.1875 C-53.4825 66.5175 -61.4025 66.8475 -69.5625 67.1875 C-73.3765451 74.55856642 -73.3765451 74.55856642 -74.4375 82 C-74.51742187 83.09957031 -74.59734375 84.19914062 -74.6796875 85.33203125 C-74.80206937 88.3916042 -74.80206937 88.3916042 -72.5625 91.1875 C-72.75 93.75 -72.75 93.75 -73.5625 96.1875 C-77.31290615 98.68777077 -79.30646485 98.43199302 -83.78515625 98.41796875 C-84.4864415 98.41751053 -85.18772675 98.41705231 -85.91026306 98.4165802 C-87.39046931 98.41356288 -88.87067253 98.40569209 -90.35083008 98.39331055 C-92.62006842 98.37503971 -94.88889886 98.37280104 -97.15820312 98.37304688 C-108.26733786 98.33508107 -108.26733786 98.33508107 -110.5625 97.1875 C-111 94 -111 94 -110.5625 90.1875 C-107.3561835 86.60983046 -103.34900088 84.62263644 -98.5625 84.1875 C-98.5625 83.5275 -98.5625 82.8675 -98.5625 82.1875 C-97.82128906 81.48238281 -97.08007812 80.77726562 -96.31640625 80.05078125 C-93.12392035 76.73150159 -91.43725018 73.50184757 -89.5 69.375 C-88.84244792 68.01432292 -88.18489583 66.65364583 -87.52734375 65.29296875 C-87.20378906 64.61459961 -86.88023437 63.93623047 -86.546875 63.23730469 C-84.31439809 58.58852589 -81.97485355 53.99273839 -79.6328125 49.3984375 C-75.25820302 40.7911937 -71.24490025 32.11453091 -67.5625 23.1875 C-66.9025 23.1875 -66.2425 23.1875 -65.5625 23.1875 C-65.46453125 22.31222656 -65.3665625 21.43695313 -65.265625 20.53515625 C-62.96025078 9.55901341 -53.51747602 1.15748401 -44.5625 -4.8125 C-30.03020654 -9.28641567 -12.81036387 -8.60948779 0 0 Z " fill="#03BE63" transform="translate(676.5625,418.8125)"/>
<path d="M0 0 C7.51146255 0.15708382 12.96130133 3.21195795 18.359375 8.3125 C23.61838507 14.0834491 24.80104474 19.53405075 24.5078125 27.28515625 C23.5067305 35.03843422 20.00323309 40.26628064 14.125 45.25 C13.465 45.25 12.805 45.25 12.125 45.25 C12.125 45.91 12.125 46.57 12.125 47.25 C4.12742366 50.80447837 -2.73960952 51.60853692 -11.125 48.6875 C-15.99336477 46.53227415 -18.94563152 43.63948983 -21.875 39.25 C-22.41511719 38.53585937 -22.95523437 37.82171875 -23.51171875 37.0859375 C-25.41838715 33.11963017 -25.31381829 29.65568947 -25.25 25.3125 C-25.26160156 24.52681641 -25.27320313 23.74113281 -25.28515625 22.93164062 C-25.26017458 17.95612403 -24.51888042 14.60750662 -21.875 10.25 C-21.215 10.25 -20.555 10.25 -19.875 10.25 C-19.49601562 9.34314453 -19.49601562 9.34314453 -19.109375 8.41796875 C-17.01728807 4.74357556 -13.58021547 3.10260774 -9.875 1.25 C-6.51944545 0.34120397 -3.47405736 0.22413273 0 0 Z " fill="#787878" transform="translate(395.875,461.75)"/>
<path d="M0 0 C3 4 3 4 3 7 C3.66 7 4.32 7 5 7 C6.84315536 12.52946609 6.79295358 18.25901606 6 24 C3.51800775 28.47823267 0.21117376 31.19255082 -4 34 C-10.09848316 34.71173944 -16.00870105 35.36657771 -21.1875 31.8125 C-21.785625 30.884375 -22.38375 29.95625 -23 29 C-23.598125 28.2575 -24.19625 27.515 -24.8125 26.75 C-26 24 -26 24 -26 15 C-17.75 15 -9.5 15 -1 15 C-2.15551726 8.09524241 -2.15551726 8.09524241 -6 6 C-6 5.34 -6 4.68 -6 4 C-12.02900687 4.51241107 -18.02004643 5.069785 -24 6 C-23.9375 3.6875 -23.9375 3.6875 -23 1 C-16.24887683 -3.16558664 -7.13692891 -3.65550017 0 0 Z " fill="#D9D9D9" transform="translate(406,470)"/>
<path d="M0 0 C1.45792884 -0.05399736 2.91642712 -0.09279177 4.375 -0.125 C5.18710937 -0.14820313 5.99921875 -0.17140625 6.8359375 -0.1953125 C9 0 9 0 11 2 C11.59084404 7.96982682 10.06837261 12.80797279 8.1875 18.375 C7.92646484 19.17421875 7.66542969 19.9734375 7.39648438 20.796875 C6.60849433 23.20170389 5.80548528 25.60097318 5 28 C4.01 30.97 3.02 33.94 2 37 C-4.93 37 -11.86 37 -19 37 C-16.74852114 27.99408455 -16.74852114 27.99408455 -15.23046875 24.81640625 C-14.90143555 24.1203125 -14.57240234 23.42421875 -14.23339844 22.70703125 C-13.88825195 21.99933594 -13.54310547 21.29164063 -13.1875 20.5625 C-12.65237793 19.45261719 -12.65237793 19.45261719 -12.10644531 18.3203125 C-11.08109954 16.20837859 -10.04257166 14.1034708 -9 12 C-8.50628906 10.98808594 -8.01257813 9.97617187 -7.50390625 8.93359375 C-4.54006163 3.18133456 -4.54006163 3.18133456 -1.859375 2.28125 C-1.24578125 2.1884375 -0.6321875 2.095625 0 2 C0 1.34 0 0.68 0 0 Z " fill="#F8FDFB" transform="translate(634,433)"/>
<path d="M0 0 C2 2 2 2 2.1953125 4.8203125 C2.17210937 5.91085937 2.14890625 7.00140625 2.125 8.125 C2.10695313 9.22070312 2.08890625 10.31640625 2.0703125 11.4453125 C2.04710937 12.28835938 2.02390625 13.13140625 2 14 C1.01 14.495 1.01 14.495 0 15 C-0.33 14.01 -0.66 13.02 -1 12 C-1.66 13.65 -2.32 15.3 -3 17 C-2.34 17 -1.68 17 -1 17 C-1.31613469 19.95059045 -1.97656224 20.97664888 -4.11328125 23.10546875 C-9.27610959 26.49379317 -15.05248969 25.81813838 -21 25 C-25.37042285 22.14241583 -26.8901758 19.04465543 -28 14 C-28 11.69 -28 9.38 -28 7 C-19.75 7 -11.5 7 -3 7 C-3 5.02 -3 3.04 -3 1 C-2.34 1.33 -1.68 1.66 -1 2 C-0.67 1.34 -0.34 0.68 0 0 Z M-22 11 C-22.55851582 15.89733673 -22.55851582 15.89733673 -19.92578125 18.296875 C-16.38237428 20.35952578 -14.25432006 20.41431596 -10.1875 20.25 C-9.02605469 20.21390625 -7.86460937 20.1778125 -6.66796875 20.140625 C-5.34732422 20.07101562 -5.34732422 20.07101562 -4 20 C-4 17.03 -4 14.06 -4 11 C-9.94 11 -15.88 11 -22 11 Z " fill="#F6F6F6" transform="translate(409,479)"/>
<path d="M0 0 C0.495 1.485 0.495 1.485 1 3 C0.01 3.33 -0.98 3.66 -2 4 C-2 4.66 -2 5.32 -2 6 C-5.79640575 8.49266344 -9.64839084 8.28219819 -14.02563477 8.25878906 C-14.83094635 8.2622937 -15.63625793 8.26579834 -16.4659729 8.26940918 C-19.12453868 8.27820279 -21.78283782 8.27238629 -24.44140625 8.265625 C-26.28938345 8.2669722 -28.13736031 8.26891319 -29.9853363 8.27142334 C-33.85638812 8.27437128 -37.72734759 8.27008706 -41.59838867 8.26074219 C-46.56409575 8.24933988 -51.52958681 8.25591414 -56.49528599 8.26788712 C-60.31021254 8.27510781 -64.12508771 8.27281696 -67.94001579 8.26763153 C-69.77128055 8.26629603 -71.60254995 8.26793928 -73.43380928 8.27259064 C-75.99058552 8.27766017 -78.54700979 8.26994006 -81.10375977 8.25878906 C-81.86280106 8.26283752 -82.62184235 8.26688599 -83.40388489 8.27105713 C-87.14994191 8.24073433 -88.80116722 8.13255519 -92 6 C-48.44 5.505 -48.44 5.505 -4 5 C-4 4.34 -4 3.68 -4 3 C-2 1.375 -2 1.375 0 0 Z " fill="#BCEED8" transform="translate(862,512)"/>
<path d="M0 0 C0.33 0 0.66 0 1 0 C1.495 4.95 1.495 4.95 2 10 C3.98 10.66 5.96 11.32 8 12 C7.67 12.66 7.34 13.32 7 14 C6.34 14 5.68 14 5 14 C5 16.64 5 19.28 5 22 C1.64480953 22.74953527 -1.47485132 23.1328548 -4.91040039 23.16113281 C-6.3319619 23.17554413 -6.3319619 23.17554413 -7.78224182 23.19024658 C-9.29962196 23.1966214 -9.29962196 23.1966214 -10.84765625 23.203125 C-12.42092934 23.21167511 -12.42092934 23.21167511 -14.02598572 23.22039795 C-16.23907467 23.22982669 -18.45217753 23.23637347 -20.6652832 23.24023438 C-24.05379457 23.24997498 -27.44170808 23.28103288 -30.83007812 23.3125 C-32.98176724 23.3190271 -35.13346068 23.32427872 -37.28515625 23.328125 C-38.29876724 23.3404718 -39.31237823 23.3528186 -40.35670471 23.36553955 C-41.30126022 23.36253845 -42.24581573 23.35953735 -43.21899414 23.35644531 C-44.04774551 23.36009094 -44.87649689 23.36373657 -45.73036194 23.36749268 C-48.50363174 22.91845353 -49.90312017 21.82143736 -52 20 C-51.67 18.35 -51.34 16.7 -51 15 C-50.67 15 -50.34 15 -50 15 C-49.67 16.65 -49.34 18.3 -49 20 C-42.36141777 20.02532254 -35.72284797 20.04285528 -29.08422852 20.05493164 C-26.8251092 20.05996526 -24.56599314 20.06679262 -22.30688477 20.07543945 C-19.06265457 20.08754745 -15.81846739 20.09323799 -12.57421875 20.09765625 C-11.56163498 20.10281754 -10.54905121 20.10797882 -9.50578308 20.11329651 C-8.56503433 20.11337204 -7.62428558 20.11344757 -6.6550293 20.11352539 C-5.41259712 20.11685631 -5.41259712 20.11685631 -4.14506531 20.12025452 C-1.81347714 20.08373196 -1.81347714 20.08373196 1 19 C1 16.36 1 13.72 1 11 C0.34 11 -0.32 11 -1 11 C-1.0270043 9.54176788 -1.04639787 8.08339325 -1.0625 6.625 C-1.07410156 5.81289063 -1.08570313 5.00078125 -1.09765625 4.1640625 C-1 2 -1 2 0 0 Z " fill="#C0F7DF" transform="translate(667,496)"/>
<path d="M0 0 C0.95101089 -0.00630432 1.90202179 -0.01260864 2.8818512 -0.019104 C3.9017363 -0.01505554 4.9216214 -0.01100708 5.97241211 -0.00683594 C7.55136513 -0.00970612 7.55136513 -0.00970612 9.16221619 -0.01263428 C11.38549031 -0.0139943 13.60877242 -0.01031064 15.83203125 -0.00195312 C19.2403337 0.00875945 22.64811032 -0.00186029 26.05639648 -0.01464844 C28.21590286 -0.01332702 30.37540891 -0.010765 32.53491211 -0.00683594 C34.06777611 -0.01290863 34.06777611 -0.01290863 35.63160706 -0.019104 C36.57946579 -0.01279968 37.52732452 -0.00649536 38.50390625 0 C39.33789444 0.00159119 40.17188263 0.00318237 41.03114319 0.00482178 C43.18725586 0.25878906 43.18725586 0.25878906 46.18725586 2.25878906 C46.37475586 5.88378906 46.37475586 5.88378906 46.18725586 9.25878906 C45.19725586 9.58878906 44.20725586 9.91878906 43.18725586 10.25878906 C43.18725586 9.59878906 43.18725586 8.93878906 43.18725586 8.25878906 C43.84725586 8.25878906 44.50725586 8.25878906 45.18725586 8.25878906 C44.52725586 6.60878906 43.86725586 4.95878906 43.18725586 3.25878906 C36.22722139 3.23352068 29.26719866 3.21595684 22.30712891 3.20385742 C19.93733274 3.19881565 17.56753971 3.19198241 15.19775391 3.18334961 C11.79971547 3.17127716 8.40171801 3.16555935 5.00366211 3.16113281 C3.93700821 3.15597153 2.87035431 3.15081024 1.77137756 3.14549255 C0.79043625 3.14541702 -0.19050507 3.14534149 -1.20117188 3.14526367 C-2.069431 3.14304306 -2.93769012 3.14082245 -3.83226013 3.13853455 C-5.81418095 3.03924239 -5.81418095 3.03924239 -6.81274414 4.25878906 C-6.88422613 5.61122823 -6.89673869 6.96713273 -6.87524414 8.32128906 C-6.85461914 9.62066406 -6.83399414 10.92003906 -6.81274414 12.25878906 C-6.15274414 12.25878906 -5.49274414 12.25878906 -4.81274414 12.25878906 C-4.63275134 17.47858035 -4.84179606 21.33141887 -6.81274414 26.25878906 C-7.14274414 26.25878906 -7.47274414 26.25878906 -7.81274414 26.25878906 C-7.80114258 25.34355469 -7.78954102 24.42832031 -7.77758789 23.48535156 C-7.76856445 22.29683594 -7.75954102 21.10832031 -7.75024414 19.88378906 C-7.73864258 18.70042969 -7.72704102 17.51707031 -7.71508789 16.29785156 C-7.59807821 13.33957385 -7.59807821 13.33957385 -8.81274414 11.25878906 C-8.88224955 9.7185491 -8.89726771 8.17543919 -8.87524414 6.63378906 C-8.8662207 5.81652344 -8.85719727 4.99925781 -8.84790039 4.15722656 C-8.83629883 3.53074219 -8.82469727 2.90425781 -8.81274414 2.25878906 C-5.74663693 0.48353669 -3.52871973 0.00672611 0 0 Z " fill="#B4EED5" transform="translate(706.812744140625,411.7412109375)"/>
<path d="M0 0 C0.66 0 1.32 0 2 0 C2.226875 0.763125 2.45375 1.52625 2.6875 2.3125 C4.32612593 5.66778168 5.66468248 6.38824042 9 8 C11.98483504 8.4339607 11.98483504 8.4339607 15.0625 8.3125 C16.08472656 8.30863281 17.10695313 8.30476563 18.16015625 8.30078125 C20.94132634 8.0062144 22.62614466 7.42886736 25 6 C24.68386531 8.95059045 24.02343776 9.97664888 21.88671875 12.10546875 C16.72389041 15.49379317 10.94751031 14.81813838 5 14 C0.65288101 11.15765297 -0.88147969 8.03334141 -2 3 C-1 1 -1 1 0 0 Z " fill="#EEEEEE" transform="translate(383,490)"/>
<path d="M0 0 C0.9883378 3.41557916 0.73118909 5.5268518 0 9 C0.33 9.66 0.66 10.32 1 11 C1 14.4375 1 14.4375 0 18 C-3.4375 19.625 -3.4375 19.625 -7 21 C-7.99 23.475 -7.99 23.475 -9 26 C-1.74 25.67 5.52 25.34 13 25 C12.34 25.99 11.68 26.98 11 28 C9.00048828 28.37231445 9.00048828 28.37231445 6.5703125 28.36328125 C5.69246094 28.36263672 4.81460937 28.36199219 3.91015625 28.36132812 C2.99105469 28.34521484 2.07195312 28.32910156 1.125 28.3125 C-0.24205078 28.31733398 -0.24205078 28.31733398 -1.63671875 28.32226562 C-6.0338716 28.28685663 -9.11777968 28.23213783 -13 26 C-13.23046875 23.68359375 -13.23046875 23.68359375 -13 21 C-11.42578125 19.47265625 -11.42578125 19.47265625 -9.3125 18.0625 C-3.4793664 13.42085905 -1.99444429 6.9134343 0 0 Z " fill="#29BC77" transform="translate(429,490)"/>
<path d="M0 0 C1.54571278 2.31856917 2.79618552 4.50638429 4 7 C3.34 7 2.68 7 2 7 C2 7.66 2 8.32 2 9 C-4.05872974 11.69276878 -9.35187174 12.87058822 -16 12 C-18.296875 10.98046875 -18.296875 10.98046875 -20 10 C-18.35 9.34 -16.7 8.68 -15 8 C-15.33 6.68 -15.66 5.36 -16 4 C-14.77023437 3.94392578 -14.77023437 3.94392578 -13.515625 3.88671875 C-12.43796875 3.82097656 -11.3603125 3.75523437 -10.25 3.6875 C-9.18265625 3.62949219 -8.1153125 3.57148438 -7.015625 3.51171875 C-3.8178932 2.96909846 -2.37401309 2.14928855 0 0 Z " fill="#7C7C7C" transform="translate(406,500)"/>
<path d="M0 0 C0.66 1.32 1.32 2.64 2 4 C0.02 4.99 0.02 4.99 -2 6 C-2 6.66 -2 7.32 -2 8 C-2.99 8 -3.98 8 -5 8 C-5 8.99 -5 9.98 -5 11 C10.51 11 26.02 11 42 11 C38.92685199 13.04876534 38.31349117 13.24967404 34.8515625 13.24291992 C34.02060059 13.24599655 33.18963867 13.24907318 32.33349609 13.25224304 C31.43969238 13.24505753 30.54588867 13.23787201 29.625 13.23046875 C28.70412598 13.23001053 27.78325195 13.22955231 26.83447266 13.2290802 C24.8876822 13.22605947 22.94089413 13.21817854 20.99414062 13.20581055 C18.01163178 13.18757113 15.02943376 13.18530079 12.046875 13.18554688 C10.15624731 13.18063087 8.26562173 13.1748022 6.375 13.16796875 C5.48119629 13.16685593 4.58739258 13.1657431 3.66650391 13.16459656 C2.83554199 13.15821671 2.00458008 13.15183685 1.1484375 13.14526367 C0.05281494 13.13954597 0.05281494 13.13954597 -1.06494141 13.13371277 C-3 13 -3 13 -6 12 C-6.6875 9.1875 -6.6875 9.1875 -7 6 C-5.8125 4.3125 -5.8125 4.3125 -4 3 C-3.278125 2.443125 -2.55625 1.88625 -1.8125 1.3125 C-1.214375 0.879375 -0.61625 0.44625 0 0 Z " fill="#2CBC78" transform="translate(518,505)"/>
<path d="M0 0 C0.91427261 -0.00953201 1.82854523 -0.01906403 2.77052307 -0.02888489 C4.2471769 -0.02751778 4.2471769 -0.02751778 5.75366211 -0.02612305 C6.76569199 -0.03040817 7.77772186 -0.0346933 8.82041931 -0.03910828 C10.95969901 -0.04485179 13.09899824 -0.04535168 15.23828125 -0.04101562 C18.52173886 -0.03785073 21.8043 -0.06133204 25.08764648 -0.08666992 C27.16381722 -0.08894231 29.23999038 -0.08964669 31.31616211 -0.08862305 C32.30262222 -0.09783279 33.28908234 -0.10704254 34.30543518 -0.11653137 C35.21655563 -0.11030258 36.12767609 -0.10407379 37.06640625 -0.09765625 C37.87010147 -0.09828568 38.67379669 -0.0989151 39.50184631 -0.0995636 C40.47534279 0.08567619 40.47534279 0.08567619 41.46850586 0.2746582 C43.46850586 3.2746582 43.46850586 3.2746582 43.09350586 6.4621582 C42.88725586 7.3902832 42.68100586 8.3184082 42.46850586 9.2746582 C41.47850586 9.2746582 40.48850586 9.2746582 39.46850586 9.2746582 C39.79850586 7.9546582 40.12850586 6.6346582 40.46850586 5.2746582 C39.80850586 4.9446582 39.14850586 4.6146582 38.46850586 4.2746582 C38.46850586 3.9446582 38.46850586 3.6146582 38.46850586 3.2746582 C23.28850586 2.9446582 8.10850586 2.6146582 -7.53149414 2.2746582 C-4.37609059 0.17105584 -3.60570784 0.02065021 0 0 Z " fill="#3FC182" transform="translate(804.531494140625,412.725341796875)"/>
<path d="M0 0 C0.99 0.495 0.99 0.495 2 1 C2 1.99 2 2.98 2 4 C-1.84338521 6.56225681 -4.96619106 6.26647551 -9.41870117 6.22705078 C-10.27745346 6.22734283 -11.13620575 6.22763489 -12.02098083 6.22793579 C-14.86174597 6.22654155 -17.70224939 6.2109759 -20.54296875 6.1953125 C-22.51166134 6.19158271 -24.48035579 6.18873558 -26.4490509 6.18673706 C-31.63256956 6.17909796 -36.81597628 6.15944707 -41.99945068 6.1373291 C-47.28802984 6.11687665 -52.57662707 6.10773663 -57.86523438 6.09765625 C-68.24353879 6.07620147 -78.62176009 6.04206215 -89 6 C-89 5.67 -89 5.34 -89 5 C-87.97349335 4.99635437 -86.94698669 4.99270874 -85.88937378 4.98895264 C-76.20783088 4.95198534 -66.52660553 4.89419367 -56.84530449 4.81609726 C-51.86821056 4.77661542 -46.89129374 4.74443037 -41.9140625 4.72900391 C-37.10926376 4.71384203 -32.30495192 4.67940471 -27.50037003 4.63169098 C-25.66883708 4.61687236 -23.83723463 4.60895871 -22.00564194 4.60811615 C-19.43666641 4.60574616 -16.86903611 4.57866509 -14.30029297 4.54589844 C-13.16848351 4.55344398 -13.16848351 4.55344398 -12.0138092 4.56114197 C-6.68633511 4.45624846 -4.04783328 3.20710072 0 0 Z " fill="#20B972" transform="translate(761,512)"/>
<path d="M0 0 C0.99 0 1.98 0 3 0 C3 1.32 3 2.64 3 4 C18.18 4.33 33.36 4.66 49 5 C48.67 5.66 48.34 6.32 48 7 C41.3247966 7.02526945 34.64960543 7.04283268 27.97436523 7.05493164 C25.70157409 7.05997325 23.4287862 7.06680637 21.15600586 7.07543945 C17.89696449 7.08751261 14.63796583 7.09322987 11.37890625 7.09765625 C10.35599991 7.10281754 9.33309357 7.10797882 8.27919006 7.11329651 C7.33829025 7.11337204 6.39739044 7.11344757 5.42797852 7.11352539 C4.59524918 7.115746 3.76251984 7.11796661 2.90455627 7.12025452 C1 7 1 7 0 6 C-0.04080783 4.00041636 -0.04254356 1.99954746 0 0 Z " fill="#1BB46B" transform="translate(617,510)"/>
<path d="M0 0 C0 0.66 0 1.32 0 2 C-0.99 2 -1.98 2 -3 2 C-3.66 3.65 -4.32 5.3 -5 7 C-4.34 7.33 -3.68 7.66 -3 8 C-3.99 8 -4.98 8 -6 8 C-6 8.66 -6 9.32 -6 10 C4.89 10 15.78 10 27 10 C27 10.66 27 11.32 27 12 C23.99395038 13.50302481 21.22334028 13.12994577 17.875 13.1328125 C16.82094971 13.13424759 16.82094971 13.13424759 15.74560547 13.13571167 C14.25943919 13.13639238 12.77326994 13.1345457 11.28710938 13.13037109 C9.00904681 13.12502125 6.73118141 13.13031972 4.453125 13.13671875 C3.01041623 13.13605795 1.56770758 13.13477675 0.125 13.1328125 C-1.19242188 13.13168457 -2.50984375 13.13055664 -3.8671875 13.12939453 C-7 13 -7 13 -9 12 C-9.4375 8.8125 -9.4375 8.8125 -9 5 C-6.55883692 2.41147012 -3.65694324 0 0 0 Z " fill="#16B269" transform="translate(575,504)"/>
<path d="M0 0 C5.28 0 10.56 0 16 0 C15 5 15 5 13.9375 6.8125 C10.85708253 8.7004978 7.51857662 8.54623064 4 8 C3.01 7.34 2.02 6.68 1 6 C0.67 4.02 0.34 2.04 0 0 Z " fill="#747474" transform="translate(388,491)"/>
<path d="M0 0 C0 0.66 0 1.32 0 2 C-0.66 2.66 -1.32 3.32 -2 4 C-2 4.33 -2 4.66 -2 5 C-3.06927734 5.09087891 -3.06927734 5.09087891 -4.16015625 5.18359375 C-9.46960288 5.64808101 -14.733409 6.18075251 -20 7 C-19.9375 4.6875 -19.9375 4.6875 -19 2 C-13.64847805 -1.30200291 -5.87994374 -2.93997187 0 0 Z " fill="#EDEDED" transform="translate(402,469)"/>
<path d="M0 0 C3 1 3 1 4 3 C4.039992 4.99960012 4.04346799 7.00047242 4 9 C3.34 9 2.68 9 2 9 C2 9.66 2 10.32 2 11 C-1.54415494 12.18138498 -4.75421578 12.1434738 -8.44140625 12.1328125 C-9.52662819 12.13424759 -9.52662819 12.13424759 -10.6337738 12.13571167 C-12.16104215 12.13639142 -13.6883134 12.13455141 -15.21557617 12.13037109 C-17.55719458 12.12501214 -19.89862187 12.13032695 -22.24023438 12.13671875 C-23.72395876 12.13605808 -25.20768302 12.13477716 -26.69140625 12.1328125 C-27.39350723 12.13483673 -28.09560822 12.13686096 -28.81898499 12.13894653 C-33.77006447 12.11496776 -33.77006447 12.11496776 -36 11 C-36 10.34 -36 9.68 -36 9 C-34.98574951 9.01047363 -33.97149902 9.02094727 -32.92651367 9.03173828 C-29.16385426 9.06793589 -25.40121024 9.09089956 -21.63842773 9.10986328 C-20.00982068 9.11992142 -18.38123168 9.13356958 -16.75268555 9.15087891 C-14.41190128 9.17513574 -12.07135576 9.18648483 -9.73046875 9.1953125 C-8.63813179 9.21079636 -8.63813179 9.21079636 -7.52372742 9.22659302 C-3.78724931 9.22742249 -2.19324944 9.12883296 1 7 C0.505 3.535 0.505 3.535 0 0 Z " fill="#C2F7E0" transform="translate(602,507)"/>
<path d="M0 0 C2.70249451 0.37275786 3.79935135 0.78448849 5.6875 2.8125 C9.53305087 9.22175145 8.9811371 18.87507344 7.25 25.9375 C6.84234557 27.2944069 6.42394278 28.64809357 6 30 C5.68546875 31.15242188 5.3709375 32.30484375 5.046875 33.4921875 C2.28428819 43.57356771 2.28428819 43.57356771 0 47 C1.5625 30.4375 1.5625 30.4375 5 27 C5.15686249 25.44051458 5.25076639 23.87457332 5.31640625 22.30859375 C5.35830078 21.36435547 5.40019531 20.42011719 5.44335938 19.44726562 C5.50233398 17.95743164 5.50233398 17.95743164 5.5625 16.4375 C5.60568359 15.44041016 5.64886719 14.44332031 5.69335938 13.41601562 C5.79980298 10.9441585 5.90181928 8.4721969 6 6 C5.34 6 4.68 6 4 6 C3.67 5.34 3.34 4.68 3 4 C2.01 3.67 1.02 3.34 0 3 C0 2.01 0 1.02 0 0 Z " fill="#23B571" transform="translate(675,420)"/>
<path d="M0 0 C6.94170022 -0.05058729 13.88335315 -0.08568579 20.82519531 -0.10986328 C23.18816911 -0.11993924 25.55113039 -0.13360029 27.9140625 -0.15087891 C31.30471888 -0.17505724 34.69521084 -0.18646699 38.0859375 -0.1953125 C39.14743011 -0.20563507 40.20892273 -0.21595764 41.30258179 -0.22659302 C42.77388046 -0.22681961 42.77388046 -0.22681961 44.27490234 -0.22705078 C45.14094086 -0.231492 46.00697937 -0.23593323 46.89926147 -0.24050903 C49 0 49 0 51 2 C51 3.32 51 4.64 51 6 C50.34 6 49.68 6 49 6 C49 6.66 49 7.32 49 8 C48.34 8 47.68 8 47 8 C47 8.66 47 9.32 47 10 C46.01 10.33 45.02 10.66 44 11 C43.505 10.01 43.505 10.01 43 9 C43.99 9 44.98 9 46 9 C46.33 6.36 46.66 3.72 47 1 C31.49 1 15.98 1 0 1 C0 0.67 0 0.34 0 0 Z " fill="#16B067" transform="translate(701,414)"/>
<path d="M0 0 C2.42936835 3.64405252 2.32947342 5.598817 2.375 9.9375 C2.40335937 11.16339844 2.43171875 12.38929688 2.4609375 13.65234375 C1.92995685 17.50870319 1.00244663 18.63245809 -2 21 C-2 20.34 -2 19.68 -2 19 C-2.66 19 -3.32 19 -4 19 C-3.34 17.02 -2.68 15.04 -2 13 C-1.01 14.485 -1.01 14.485 0 16 C0 10.72 0 5.44 0 0 Z M-23 13 C-17.06 13 -11.12 13 -5 13 C-5 15.97 -5 18.94 -5 22 C-6.65 22 -8.3 22 -10 22 C-8.68 19.36 -7.36 16.72 -6 14 C-11.28 14 -16.56 14 -22 14 C-21.67 15.65 -21.34 17.3 -21 19 C-21.66 18.67 -22.32 18.34 -23 18 C-23 16.35 -23 14.7 -23 13 Z " fill="#C6C6C6" transform="translate(410,477)"/>
<path d="M0 0 C1.18372948 0.00848969 1.18372948 0.00848969 2.39137268 0.01715088 C4.88785999 0.03936814 7.38286 0.08953281 9.87890625 0.140625 C11.58135934 0.16070912 13.28383514 0.17895653 14.98632812 0.1953125 C19.13858539 0.23918428 23.28974453 0.30810592 27.44140625 0.390625 C27.44140625 0.720625 27.44140625 1.050625 27.44140625 1.390625 C26.43762939 1.41044434 25.43385254 1.43026367 24.3996582 1.45068359 C20.66275659 1.52696249 16.92623308 1.61564486 13.18969727 1.70800781 C11.57486455 1.74620572 9.95994941 1.78107445 8.3449707 1.8125 C6.01874408 1.85835109 3.69308033 1.91631084 1.3671875 1.9765625 C0.2903344 1.99388931 0.2903344 1.99388931 -0.80827332 2.01156616 C-4.78842281 2.1278106 -8.03682626 2.46966091 -11.55859375 4.390625 C-12.54859375 5.875625 -12.54859375 5.875625 -13.55859375 7.390625 C-14.21859375 7.390625 -14.87859375 7.390625 -15.55859375 7.390625 C-15.80609375 8.195 -16.05359375 8.999375 -16.30859375 9.828125 C-17.55859375 12.390625 -17.55859375 12.390625 -19.68359375 13.203125 C-20.30234375 13.265 -20.92109375 13.326875 -21.55859375 13.390625 C-17.20379879 3.59233633 -10.31034978 -0.28331022 0 0 Z " fill="#2EB978" transform="translate(560.55859375,413.609375)"/>
<path d="M0 0 C0.33 0 0.66 0 1 0 C1.84708598 20.42418414 1.84708598 20.42418414 -3 28 C-3.66 28.33 -4.32 28.66 -5 29 C-5.61365708 31.05376006 -5.61365708 31.05376006 -6 33.4375 C-6.78082192 37.78082192 -6.78082192 37.78082192 -9 40 C-7.67085928 31.5655463 -5.4904687 23.43471915 -2.875 15.3125 C-1.24505131 10.14892209 -0.36578442 5.39532022 0 0 Z " fill="#31BE7C" transform="translate(445,428)"/>
<path d="M0 0 C1.00023193 0.00523682 2.00046387 0.01047363 3.03100586 0.01586914 C4.1105957 0.0190918 5.19018555 0.02231445 6.30249023 0.02563477 C8.00695312 0.03820312 8.00695312 0.03820312 9.74584961 0.05102539 C11.45611328 0.05779297 11.45611328 0.05779297 13.20092773 0.06469727 C16.02842379 0.07652779 18.85589306 0.09446389 21.68334961 0.11352539 C21.02334961 3.74352539 20.36334961 7.37352539 19.68334961 11.11352539 C19.35334961 11.11352539 19.02334961 11.11352539 18.68334961 11.11352539 C19.01334961 8.14352539 19.34334961 5.17352539 19.68334961 2.11352539 C12.75334961 2.11352539 5.82334961 2.11352539 -1.31665039 2.11352539 C-1.31665039 2.77352539 -1.31665039 3.43352539 -1.31665039 4.11352539 C-1.97665039 4.11352539 -2.63665039 4.11352539 -3.31665039 4.11352539 C-3.31665039 5.10352539 -3.31665039 6.09352539 -3.31665039 7.11352539 C-3.97665039 7.11352539 -4.63665039 7.11352539 -5.31665039 7.11352539 C-3.09477744 0.15165681 -3.09477744 0.15165681 0 0 Z " fill="#AFF1D4" transform="translate(609.316650390625,484.886474609375)"/>
<path d="M0 0 C0.9883378 3.41557916 0.73118909 5.5268518 0 9 C0.33 9.66 0.66 10.32 1 11 C0.29411765 17.70588235 0.29411765 17.70588235 -1 19 C-2.66617115 19.04063832 -4.33388095 19.042721 -6 19 C-5.28739906 14.71620357 -3.93078264 10.74906147 -2.4375 6.6875 C-2.20353516 6.04232422 -1.96957031 5.39714844 -1.72851562 4.73242188 C-1.15552993 3.15378781 -0.57820536 1.57672974 0 0 Z M-9 20 C-8.34 20.33 -7.68 20.66 -7 21 C-7.33 21.66 -7.66 22.32 -8 23 C-8.66 23 -9.32 23 -10 23 C-9.67 22.01 -9.34 21.02 -9 20 Z " fill="#04BE66" transform="translate(429,490)"/>
<path d="M0 0 C0.66 1.32 1.32 2.64 2 4 C1.32904297 4.65355469 1.32904297 4.65355469 0.64453125 5.3203125 C-3.14856702 9.05679736 -6.62998621 12.88109425 -10 17 C-11.6875 18.875 -11.6875 18.875 -13 20 C-13.66 20 -14.32 20 -15 20 C-13.72271509 17.28614002 -12.3291531 14.96735062 -10.46875 12.6171875 C-9.98792969 12.00746094 -9.50710938 11.39773438 -9.01171875 10.76953125 C-8.51285156 10.14433594 -8.01398437 9.51914062 -7.5 8.875 C-7.00113281 8.24207031 -6.50226562 7.60914063 -5.98828125 6.95703125 C-4.064186 4.52740963 -2.1938523 2.1938523 0 0 Z " fill="#26BD75" transform="translate(538,427)"/>
<path d="M0 0 C-0.33 0.99 -0.66 1.98 -1 3 C-17.17 3 -33.34 3 -50 3 C-50 2.34 -50 1.68 -50 1 C-49.44289841 1.00222061 -48.88579681 1.00444122 -48.31181335 1.00672913 C-42.52078898 1.02882875 -36.72977657 1.04392621 -30.9387207 1.05493164 C-28.77660638 1.05996472 -26.61449547 1.06679169 -24.45239258 1.07543945 C-21.34715941 1.08754979 -18.2419712 1.09323852 -15.13671875 1.09765625 C-14.16788254 1.10281754 -13.19904633 1.10797882 -12.20085144 1.11329651 C-10.84979057 1.11340981 -10.84979057 1.11340981 -9.47143555 1.11352539 C-8.28229805 1.11685631 -8.28229805 1.11685631 -7.06913757 1.12025452 C-4.56470099 0.97470121 -2.51232715 0 0 0 Z " fill="#DFFEF5" transform="translate(562,516)"/>
<path d="M0 0 C3.375 0.25 3.375 0.25 7 1 C8.4375 3.0625 8.4375 3.0625 9 5 C7 7 7 7 4.1875 7.4375 C0.02289871 6.86588806 -1.33419096 5.13624593 -4 2 C-3.34 1.67 -2.68 1.34 -2 1 C-1.34 1.33 -0.68 1.66 0 2 C0 1.34 0 0.68 0 0 Z " fill="#757575" transform="translate(383,503)"/>
<path d="M0 0 C1.54571278 2.31856917 2.79618552 4.50638429 4 7 C3.34 7 2.68 7 2 7 C2 7.66 2 8.32 2 9 C0.68 9.33 -0.64 9.66 -2 10 C-1.67 9.01 -1.34 8.02 -1 7 C-8.425 6.01 -8.425 6.01 -16 5 C-16 4.67 -16 4.34 -16 4 C-14.77023437 3.94392578 -14.77023437 3.94392578 -13.515625 3.88671875 C-12.43796875 3.82097656 -11.3603125 3.75523437 -10.25 3.6875 C-9.18265625 3.62949219 -8.1153125 3.57148438 -7.015625 3.51171875 C-3.8178932 2.96909846 -2.37401309 2.14928855 0 0 Z " fill="#888888" transform="translate(406,500)"/>
<path d="M0 0 C1.875 0.625 1.875 0.625 4 2 C5.87175032 6.43068169 6.27081978 10.27915666 6.25 15.0625 C6.25773438 16.84333984 6.25773438 16.84333984 6.265625 18.66015625 C6.00995097 21.87488113 5.37732596 24.1087086 4 27 C3.67 27 3.34 27 3 27 C3.03480469 25.72125 3.06960938 24.4425 3.10546875 23.125 C3.13362787 21.41667991 3.16092574 19.70834548 3.1875 18 C3.21263672 17.16082031 3.23777344 16.32164062 3.26367188 15.45703125 C3.33182365 9.59597871 2.36728835 5.36833894 0 0 Z " fill="#CCF9E6" transform="translate(679,421)"/>
<path d="M0 0 C0.99 0.33 1.98 0.66 3 1 C2.75765625 1.63164062 2.5153125 2.26328125 2.265625 2.9140625 C-0.58053873 10.5111303 -2.8533493 18.17842698 -5 26 C-6.14804924 22.32947639 -5.57961749 19.98272012 -4.53515625 16.2890625 C-3.76253775 12.98428554 -3.6084141 9.68013089 -3.44140625 6.296875 C-2.91310817 3.54785489 -1.80692497 2.10085143 0 0 Z " fill="#1DB970" transform="translate(580,424)"/>
<path d="M0 0 C0.66 0 1.32 0 2 0 C1.68151851 2.97249386 0.96374181 4.03839103 -1.125 6.25 C-4.6525032 8.39717586 -6.9410184 8.3183515 -11 8 C-10.78125 6.10546875 -10.78125 6.10546875 -10 4 C-7.96875 2.98828125 -7.96875 2.98828125 -5.5 2.3125 C-2.48160243 1.63170957 -2.48160243 1.63170957 0 0 Z " fill="#F3F3F3" transform="translate(406,496)"/>
<path d="M0 0 C0 3 0 3 -1 6 C-1.66 6 -2.32 6 -3 6 C-3.33 7.32 -3.66 8.64 -4 10 C-4.66 10 -5.32 10 -6 10 C-6.226875 10.5775 -6.45375 11.155 -6.6875 11.75 C-8.33038023 14.5663661 -10.39533227 16.08077114 -13 18 C-13.66 17.67 -14.32 17.34 -15 17 C-13.3399359 15.10278388 -11.67983474 13.20560039 -10.01953125 11.30859375 C-8.68285473 9.78059409 -7.34690613 8.25195732 -6.01171875 6.72265625 C-5.38910156 6.00980469 -4.76648438 5.29695313 -4.125 4.5625 C-3.55007813 3.90378906 -2.97515625 3.24507813 -2.3828125 2.56640625 C-1.61025568 1.69127832 -0.82543714 0.82543714 0 0 Z " fill="#29BA76" transform="translate(850,483)"/>
<path d="M0 0 C0.66 0.33 1.32 0.66 2 1 C-2.42706612 10.79320688 -7.15013273 20.41104923 -12 30 C-13.25541557 26.23375329 -12.37061958 24.62811066 -11 21 C-10.34 21 -9.68 21 -9 21 C-8.67 19.35 -8.34 17.7 -8 16 C-7.34 16 -6.68 16 -6 16 C-6.07541016 14.90751953 -6.07541016 14.90751953 -6.15234375 13.79296875 C-5.97893723 10.61384915 -5.18667417 9.02252432 -3.5625 6.3125 C-3.11003906 5.54550781 -2.65757812 4.77851563 -2.19140625 3.98828125 C-1.60166016 3.00408203 -1.60166016 3.00408203 -1 2 C-0.67 1.34 -0.34 0.68 0 0 Z " fill="#D0FCE8" transform="translate(600,458)"/>
<path d="M0 0 C1.2132437 4.07410921 0.56882513 7.35788184 -0.3125 11.4375 C-0.44333984 12.09298828 -0.57417969 12.74847656 -0.70898438 13.42382812 C-1.47968485 17.13584925 -2.54146126 20.50927131 -4 24 C-4.37593066 25.9924325 -4.71979545 27.9918674 -5 30 C-5.66 30 -6.32 30 -7 30 C-6.36617071 23.2605493 -4.77702547 17.00449379 -2.9375 10.5 C-2.65583984 9.48679687 -2.37417969 8.47359375 -2.08398438 7.4296875 C-1.39434817 4.95167266 -0.69958811 2.47522 0 0 Z " fill="#D3FAE9" transform="translate(574,450)"/>
<path d="M0 0 C0.66 0 1.32 0 2 0 C2 1.32 2 2.64 2 4 C10.91 3.01 10.91 3.01 20 2 C19.34 3.32 18.68 4.64 18 6 C15.18743719 6.02684312 12.37512759 6.04676188 9.5625 6.0625 C8.76005859 6.07087891 7.95761719 6.07925781 7.13085938 6.08789062 C5.08704779 6.0965143 3.04316098 6.0522815 1 6 C0 5 0 5 -0.0625 2.4375 C-0.041875 1.633125 -0.02125 0.82875 0 0 Z " fill="#2BBB76" transform="translate(719,499)"/>
<path d="M0 0 C1.92408548 5.34468188 0.43878904 10.29441351 -1.875 15.25 C-2.40480469 16.36955078 -2.40480469 16.36955078 -2.9453125 17.51171875 C-4.78818977 21.85954402 -5.87094019 26.42388639 -7 31 C-7.99 31 -8.98 31 -10 31 C-9.56945312 30.07832031 -9.13890625 29.15664063 -8.6953125 28.20703125 C-6.54539423 23.19097634 -5.25203172 17.95689525 -3.875 12.6875 C-3.35339324 10.71175535 -2.83004329 8.73646983 -2.3046875 6.76171875 C-2.07765137 5.89506592 -1.85061523 5.02841309 -1.61669922 4.13549805 C-1 2 -1 2 0 0 Z " fill="#3CC081" transform="translate(785,474)"/>
<path d="M0 0 C1.32 0.66 2.64 1.32 4 2 C4.33693273 8.96327638 3.3030887 14.43345544 1 21 C0.67 21 0.34 21 0 21 C-0.33 17.04 -0.66 13.08 -1 9 C-0.01 9.33 0.98 9.66 2 10 C1.34 6.7 0.68 3.4 0 0 Z " fill="#13B668" transform="translate(866,479)"/>
<path d="M0 0 C1.32 0.33 2.64 0.66 4 1 C4.20463943 6.21830534 4.17075018 10.17611072 2 15 C1.47052044 17.36229344 1.0038731 19.72911295 0.5625 22.109375 C0.376875 22.73328125 0.19125 23.3571875 0 24 C-0.66 24.33 -1.32 24.66 -2 25 C-1.24147727 17.66761364 -1.24147727 17.66761364 0.0625 14.0625 C1.41159478 9.65545707 2.12130852 4.24261703 0 0 Z " fill="#C7F6E2" transform="translate(868,479)"/>
<path d="M0 0 C0.33 0.99 0.66 1.98 1 3 C1.66 3.33 2.32 3.66 3 4 C-2.57001079 3.11386192 -2.57001079 3.11386192 -4.94628906 2.48461914 C-7.03530226 1.99166964 -8.96799433 1.79715182 -11.109375 1.68359375 C-11.86347656 1.64169922 -12.61757813 1.59980469 -13.39453125 1.55664062 C-14.56048828 1.49766602 -14.56048828 1.49766602 -15.75 1.4375 C-16.93916016 1.37272461 -16.93916016 1.37272461 -18.15234375 1.30664062 C-20.10137815 1.20097009 -22.05066748 1.10002034 -24 1 C-24 0.67 -24 0.34 -24 0 C-15.81695261 -1.0607654 -8.17142412 -1.36190402 0 0 Z " fill="#BBF3DA" transform="translate(667,411)"/>
<path d="M0 0 C0.495 0.309375 0.99 0.61875 1.5 0.9375 C4.97986781 2.41644382 8.24028509 2.62402851 12 3 C11.360625 3.268125 10.72125 3.53625 10.0625 3.8125 C7.66868314 4.88667752 7.66868314 4.88667752 7 8 C3.625 8.125 3.625 8.125 0 8 C-0.66 7.34 -1.32 6.68 -2 6 C-1.01 5.34 -0.02 4.68 1 4 C0.67 2.68 0.34 1.36 0 0 Z " fill="#EDEDED" transform="translate(388,496)"/>
<path d="M0 0 C0.93619813 3.15506142 1.1057123 5.96586502 1.0625 9.25 C1.05347656 10.14203125 1.04445313 11.0340625 1.03515625 11.953125 C1.02355469 12.62859375 1.01195312 13.3040625 1 14 C0.34 14 -0.32 14 -1 14 C-1.33 14.99 -1.66 15.98 -2 17 C-5.0625 18.1875 -5.0625 18.1875 -8 19 C-7.51080078 18.19949219 -7.51080078 18.19949219 -7.01171875 17.3828125 C-3.71581036 11.76324009 -1.6183376 6.3023066 0 0 Z " fill="#38C582" transform="translate(630,488)"/>
<path d="M0 0 C0.66 1.32 1.32 2.64 2 4 C0.02 4.99 0.02 4.99 -2 6 C-2 6.66 -2 7.32 -2 8 C-2.99 8 -3.98 8 -5 8 C-4.67 9.32 -4.34 10.64 -4 12 C-4.66 12 -5.32 12 -6 12 C-6.6875 9.1875 -6.6875 9.1875 -7 6 C-5.8125 4.3125 -5.8125 4.3125 -4 3 C-3.278125 2.443125 -2.55625 1.88625 -1.8125 1.3125 C-1.214375 0.879375 -0.61625 0.44625 0 0 Z " fill="#12BC6C" transform="translate(518,505)"/>
<path d="M0 0 C2 3 2 3 2 6 C1.34 6 0.68 6 0 6 C0 8.31 0 10.62 0 13 C-0.99 13.33 -1.98 13.66 -3 14 C-3.12375 15.299375 -3.2475 16.59875 -3.375 17.9375 C-3.5859375 20.15234375 -3.5859375 20.15234375 -4 22 C-4.66 22.33 -5.32 22.66 -6 23 C-5.69217504 21.35328588 -5.37860766 19.70764424 -5.0625 18.0625 C-4.88847656 17.14597656 -4.71445312 16.22945313 -4.53515625 15.28515625 C-4 13 -4 13 -3 12 C-2.63021574 10.36197128 -2.30331217 8.71412956 -2 7.0625 C-1.1070615 2.21412301 -1.1070615 2.21412301 0 0 Z " fill="#2CBC77" transform="translate(797,432)"/>
<path d="M0 0 C0.56302899 2.20519686 1.07387953 4.38786756 1.5 6.625 C2.27493039 10.30591935 2.73699771 10.82466514 6 13 C5.67 14.98 5.34 16.96 5 19 C3.68 19.33 2.36 19.66 1 20 C1.04125 18.9275 1.0825 17.855 1.125 16.75 C1.28163191 13.18641725 1.28163191 13.18641725 -0.03125 11.0625 C-1.23282938 8.50429874 -1.03245054 7.02066369 -0.625 4.25 C-0.51414062 3.45078125 -0.40328125 2.6515625 -0.2890625 1.828125 C-0.19367187 1.22484375 -0.09828125 0.6215625 0 0 Z " fill="#B2F3D4" transform="translate(561,496)"/>
<path d="M0 0 C0 0.66 0 1.32 0 2 C-0.99 2 -1.98 2 -3 2 C-3.66 3.65 -4.32 5.3 -5 7 C-4.34 7.33 -3.68 7.66 -3 8 C-3.99 8 -4.98 8 -6 8 C-6.33 9.32 -6.66 10.64 -7 12 C-7.66 12 -8.32 12 -9 12 C-9.4375 8.8125 -9.4375 8.8125 -9 5 C-6.55883692 2.41147012 -3.65694324 0 0 0 Z " fill="#27BC76" transform="translate(575,504)"/>
<path d="M0 0 C0.33 0 0.66 0 1 0 C1 2.31 1 4.62 1 7 C6.61 7 12.22 7 18 7 C18 6.01 18 5.02 18 4 C18.66 4 19.32 4 20 4 C19.67 5.32 19.34 6.64 19 8 C12.07 8 5.14 8 -2 8 C-1.34 5.36 -0.68 2.72 0 0 Z " fill="#B9F7D9" transform="translate(617,462)"/>
<path d="M0 0 C0.90105469 0.01804687 1.80210937 0.03609375 2.73046875 0.0546875 C3.41753906 0.07789063 4.10460937 0.10109375 4.8125 0.125 C4.8125 0.455 4.8125 0.785 4.8125 1.125 C2.1725 1.125 -0.4675 1.125 -3.1875 1.125 C-3.1875 1.785 -3.1875 2.445 -3.1875 3.125 C-4.8125 5.25 -4.8125 5.25 -7.1875 7.125 C-10.4375 7.375 -10.4375 7.375 -13.1875 7.125 C-6.09583333 -0.15833333 -6.09583333 -0.15833333 0 0 Z " fill="#33C17E" transform="translate(765.1875,477.875)"/>
<path d="M0 0 C1.19632904 4.05086451 0.63644176 7.36555592 -0.1875 11.4375 C-0.30158203 12.09298828 -0.41566406 12.74847656 -0.53320312 13.42382812 C-1.41889038 17.90621487 -2.89966222 20.66858114 -6 24 C-5.25828891 18.73129366 -3.89090385 13.73023369 -2.4375 8.625 C-2.20353516 7.79355469 -1.96957031 6.96210938 -1.72851562 6.10546875 C-1.15517202 4.06951391 -0.5779756 2.03464473 0 0 Z " fill="#47C589" transform="translate(698,440)"/>
<path d="M0 0 C0.66 0 1.32 0 2 0 C4.93059323 3.04781696 5.82495637 5.79895295 6 10 C4.5078125 12.1875 4.5078125 12.1875 3 14 C2.49528803 12.23050388 1.99639315 10.45934777 1.5 8.6875 C1.2215625 7.70136719 0.943125 6.71523438 0.65625 5.69921875 C0 3 0 3 0 0 Z " fill="#1ABD6F" transform="translate(458,470)"/>
<path d="M0 0 C2 3 2 3 1.9375 5.1875 C0.59973409 9.20079772 -1.64980232 12.50505659 -4 16 C-5 14 -5 14 -4.00390625 10.7421875 C-3.53110016 9.4502948 -3.05028031 8.16131362 -2.5625 6.875 C-2.31951172 6.21628906 -2.07652344 5.55757813 -1.82617188 4.87890625 C-1.22421679 3.25008662 -0.61297588 1.62470425 0 0 Z " fill="#41C588" transform="translate(685,488)"/>
<path d="M0 0 C1 2 1 2 0.9375 4.3125 C-0.42084798 8.20643086 -2.7191576 9.55681949 -6 12 C-6.33 11.34 -6.66 10.68 -7 10 C-3.535 5.05 -3.535 5.05 0 0 Z " fill="#30C17B" transform="translate(620,424)"/>
<path d="M0 0 C0.33 0.99 0.66 1.98 1 3 C0.01 3.8971875 0.01 3.8971875 -1 4.8125 C-3.3373846 6.87501834 -3.3373846 6.87501834 -3 10 C-3.99 10 -4.98 10 -6 10 C-6.375 7.8125 -6.375 7.8125 -6 5 C-4.16038352 3.00977164 -2.20813852 1.61010101 0 0 Z " fill="#34BF7D" transform="translate(422,506)"/>
<path d="M0 0 C0.33 0 0.66 0 1 0 C1 3.96 1 7.92 1 12 C-0.98 12.99 -0.98 12.99 -3 14 C-2.28547412 9.23649415 -1.20465156 4.65798604 0 0 Z " fill="#35C07E" transform="translate(524,488)"/>
<path d="M0 0 C1.32 0.99 2.64 1.98 4 3 C3.67 3.66 3.34 4.32 3 5 C1.68 5 0.36 5 -1 5 C-1.99 6.485 -1.99 6.485 -3 8 C-4.4606285 5.35261084 -5 4.10551666 -5 1 C-3.68 1 -2.36 1 -1 1 C-0.67 0.67 -0.34 0.34 0 0 Z " fill="#868686" transform="translate(412,469)"/>
<path d="M0 0 C0 1.32 0 2.64 0 4 C-3 6 -3 6 -5.1875 5.625 C-5.785625 5.41875 -6.38375 5.2125 -7 5 C-7.33 3.68 -7.66 2.36 -8 1 C-4.93251126 -0.86240388 -3.40254489 -1.2151946 0 0 Z " fill="#848484" transform="translate(390,464)"/>
<path d="M0 0 C1.32 0.33 2.64 0.66 4 1 C4 2.32 4 3.64 4 5 C3.34 5 2.68 5 2 5 C2 5.66 2 6.32 2 7 C1.34 7 0.68 7 0 7 C0 7.66 0 8.32 0 9 C-0.99 9.33 -1.98 9.66 -3 10 C-3.33 9.34 -3.66 8.68 -4 8 C-3.01 8 -2.02 8 -1 8 C-0.67 5.36 -0.34 2.72 0 0 Z " fill="#20BA70" transform="translate(748,415)"/>
<path d="M0 0 C0.33 0 0.66 0 1 0 C2.67357513 5.37305699 2.67357513 5.37305699 3 8 C1.625 10 1.625 10 0 11 C-0.33 10.67 -0.66 10.34 -1 10 C-1.66 10.99 -2.32 11.98 -3 13 C-2.45144652 8.428721 -1.58255197 4.32564205 0 0 Z " fill="#2DC17B" transform="translate(691,466)"/>
<path d="M0 0 C1.74216797 0.02707031 1.74216797 0.02707031 3.51953125 0.0546875 C4.39996094 0.07789063 5.28039062 0.10109375 6.1875 0.125 C6.1875 0.455 6.1875 0.785 6.1875 1.125 C3.375 1.59375 3.375 1.59375 0.5625 2.0625 C-1.00371094 2.32353516 -1.00371094 2.32353516 -2.6015625 2.58984375 C-5.671875 3.1015625 -8.7421875 3.61328125 -11.8125 4.125 C-11.8125 3.465 -11.8125 2.805 -11.8125 2.125 C-7.73526266 0.17468308 -4.49557578 -0.09081971 0 0 Z " fill="#D8FCED" transform="translate(645.8125,409.875)"/>
<path d="M0 0 C1.11808489 3.35425466 0.78694699 5.58989636 0 9 C0 9.99 0 10.98 0 12 C-2 14.1875 -2 14.1875 -4 16 C-4.66 15.67 -5.32 15.34 -6 15 C-5.73445313 14.41992188 -5.46890625 13.83984375 -5.1953125 13.2421875 C-3.22438666 8.88313255 -1.40950748 4.58089932 0 0 Z " fill="#40C284" transform="translate(429,490)"/>
<path d="M0 0 C0.33 0 0.66 0 1 0 C1.33 1.65 1.66 3.3 2 5 C6.29 5 10.58 5 15 5 C10.89441282 7.05279359 9.19793315 7.2216942 4.75 7.125 C3.67234375 7.10695313 2.5946875 7.08890625 1.484375 7.0703125 C0.66453125 7.04710937 -0.1553125 7.02390625 -1 7 C-0.67 4.69 -0.34 2.38 0 0 Z " fill="#CCFCEB" transform="translate(722,496)"/>
<path d="M0 0 C1.07257764 3.30200687 0.92468991 5.67371657 0.25 9.0625 C0.01023437 10.34833984 0.01023437 10.34833984 -0.234375 11.66015625 C-1.06374096 14.19480017 -1.97882865 15.3064361 -4 17 C-3.21450457 11.18733381 -1.59317541 5.63122376 0 0 Z " fill="#C2F8E0" transform="translate(732,461)"/>
<path d="M0 0 C0.66 0.99 1.32 1.98 2 3 C0.47005208 4.23697917 -1.05989583 5.47395833 -2.58984375 6.7109375 C-4.13266437 7.9666391 -4.13266437 7.9666391 -5 10 C-5.66 10 -6.32 10 -7 10 C-5.33248852 6.05860922 -2.77289351 3.2107188 0 0 Z " fill="#31C07D" transform="translate(530,437)"/>
<path d="M0 0 C0.33 0.99 0.66 1.98 1 3 C0.01 3.33 -0.98 3.66 -2 4 C-2 4.66 -2 5.32 -2 6 C-5.4019487 8.09350689 -8.05272412 8.17942163 -12 8 C-9.36095629 6.58622659 -6.92879371 5.62759865 -4 5 C-4 4.34 -4 3.68 -4 3 C-2 1.375 -2 1.375 0 0 Z " fill="#D1F9E8" transform="translate(862,512)"/>
<path d="M0 0 C0 3.52032428 -0.70351351 4.4385343 -3 7 C-3.66 7 -4.32 7 -5 7 C-5 6.34 -5 5.68 -5 5 C-5.66 4.67 -6.32 4.34 -7 4 C-4.77810176 1.77810176 -2.91517292 1.07401108 0 0 Z " fill="#1BBF72" transform="translate(625,505)"/>
<path d="M0 0 C0.33 0 0.66 0 1 0 C1.309375 0.94875 1.61875 1.8975 1.9375 2.875 C2.87394742 5.86080408 2.87394742 5.86080408 4 8 C4.13415472 10.6723621 4.04318541 13.32250488 4 16 C3.33333333 14.66666667 2.66666667 13.33333333 2 12 C1.443125 11.13375 1.443125 11.13375 0.875 10.25 C-0.46160487 6.81301605 -0.12238184 3.67145533 0 0 Z " fill="#AEEED0" transform="translate(794,416)"/>
<path d="M0 0 C3 1 3 1 4 3 C4.039992 4.99960012 4.04346799 7.00047242 4 9 C2.02 9.33 0.04 9.66 -2 10 C-1.484375 9.649375 -0.96875 9.29875 -0.4375 8.9375 C1.40146383 6.90531273 1.40146383 6.90531273 0.6875 3.3125 C0.460625 2.219375 0.23375 1.12625 0 0 Z " fill="#BFF2DD" transform="translate(602,507)"/>
<path d="M0 0 C0.33 0 0.66 0 1 0 C1.33 4.62 1.66 9.24 2 14 C-1 11 -1 11 -1.328125 8.80859375 C-1.30234375 8.02613281 -1.2765625 7.24367188 -1.25 6.4375 C-1.23453125 5.65246094 -1.2190625 4.86742187 -1.203125 4.05859375 C-1 2 -1 2 0 0 Z " fill="#CDFBE7" transform="translate(443,496)"/>
<path d="M0 0 C3 2 3 2 3.51171875 3.9453125 C3.67447917 5.96354167 3.83723958 7.98177083 4 10 C4.99 10.33 5.98 10.66 7 11 C5.02 11.99 5.02 11.99 3 13 C1.70074209 8.66914029 0.656379 4.48525648 0 0 Z " fill="#B7F6D9" transform="translate(496,461)"/>
<path d="M0 0 C0.33 0 0.66 0 1 0 C2.46670113 5.22512279 3.22577402 9.5814234 3 15 C2.67 15 2.34 15 2 15 C2 13.02 2 11.04 2 9 C1.34 9 0.68 9 0 9 C-1.36623674 6.26752652 -1.128426 4.01801098 -1 1 C-0.67 0.67 -0.34 0.34 0 0 Z " fill="#28B775" transform="translate(700,415)"/>
<path d="M0 0 C1.19872272 3.59616816 0.72500287 4.28921639 -0.8125 7.625 C-1.16957031 8.42164063 -1.52664063 9.21828125 -1.89453125 10.0390625 C-3 12 -3 12 -5 13 C-4.67 11.02 -4.34 9.04 -4 7 C-3.34 7 -2.68 7 -2 7 C-1.34 4.69 -0.68 2.38 0 0 Z " fill="#2FB976" transform="translate(865,501)"/>
<path d="M0 0 C0.33 0 0.66 0 1 0 C1.14285714 8.57142857 1.14285714 8.57142857 0 12 C-0.66 12 -1.32 12 -2 12 C-2.33 12.66 -2.66 13.32 -3 14 C-2.28547412 9.23649415 -1.20465156 4.65798604 0 0 Z " fill="#B6F2D7" transform="translate(773,488)"/>
<path d="M0 0 C2 2 2 2 2.3125 4.3125 C1.94065148 7.51039729 0.80447532 9.36847349 -1 12 C-1.66 11.67 -2.32 11.34 -3 11 C-2.01 7.37 -1.02 3.74 0 0 Z " fill="#34BF7F" transform="translate(639,458)"/>
<path d="M0 0 C1.45792884 -0.05399736 2.91642712 -0.09279177 4.375 -0.125 C5.18710937 -0.14820313 5.99921875 -0.17140625 6.8359375 -0.1953125 C9 0 9 0 11 2 C11.125 5.625 11.125 5.625 11 9 C10.67 9 10.34 9 10 9 C10 7.02 10 5.04 10 3 C6.7 2.34 3.4 1.68 0 1 C0 0.67 0 0.34 0 0 Z " fill="#AEF6D8" transform="translate(634,433)"/>
<path d="M0 0 C0.66 0.33 1.32 0.66 2 1 C1.51058824 6.50588235 1.51058824 6.50588235 -0.9375 8.875 C-3 10 -3 10 -5 10 C-5 9.34 -5 8.68 -5 8 C-4.34 8 -3.68 8 -3 8 C-3 7.01 -3 6.02 -3 5 C-2.01 5 -1.02 5 0 5 C0 3.35 0 1.7 0 0 Z " fill="#1DB36F" transform="translate(588,415)"/>
<path d="M0 0 C0.33 0.99 0.66 1.98 1 3 C-2.35327639 5.23551759 -2.90743657 5.17283528 -6.6875 4.625 C-7.49574219 4.51414062 -8.30398438 4.40328125 -9.13671875 4.2890625 C-10.05904297 4.14597656 -10.05904297 4.14597656 -11 4 C-11 3.67 -11 3.34 -11 3 C-8.02148438 2.70703125 -8.02148438 2.70703125 -5.04296875 2.4140625 C-2.70011858 2.07334609 -2.70011858 2.07334609 0 0 Z " fill="#B8EFD7" transform="translate(486,514)"/>
<path d="M0 0 C1 2 1 2 0.3125 5.4375 C-1.01705094 9.04628112 -1.73730489 10.15113944 -5 12 C-3.68938409 7.76570244 -2.05643741 3.92592596 0 0 Z " fill="#B6F2D6" transform="translate(626,444)"/>
<path d="M0 0 C0.66 0 1.32 0 2 0 C0.515 6.435 0.515 6.435 -1 13 C-1.33 13 -1.66 13 -2 13 C-2.05447047 11.58376784 -2.09300508 10.16691809 -2.125 8.75 C-2.14820313 7.96109375 -2.17140625 7.1721875 -2.1953125 6.359375 C-1.9828378 3.79268059 -1.28654105 2.2083933 0 0 Z " fill="#21B771" transform="translate(740,427)"/>
<path d="M0 0 C0.33 0 0.66 0 1 0 C1.63019694 8.03501094 1.63019694 8.03501094 -1 12.0625 C-1.66 12.701875 -2.32 13.34125 -3 14 C-2.28547412 9.23649415 -1.20465156 4.65798604 0 0 Z " fill="#C9F9E3" transform="translate(565,482)"/>
<path d="M0 0 C1.13732426 3.40401948 0.83989957 5.77456664 0.0625 9.25 C-0.13214844 10.14203125 -0.32679688 11.0340625 -0.52734375 11.953125 C-0.68332031 12.62859375 -0.83929687 13.3040625 -1 14 C-1.66 14 -2.32 14 -3 14 C-2.28547412 9.23649415 -1.20465156 4.65798604 0 0 Z " fill="#BAF3D7" transform="translate(574,450)"/>
<path d="M0 0 C2.71928517 0.37507382 3.84218661 0.84218661 5.8125 2.8125 C7 5 7 5 6.6875 7.25 C6.460625 7.8275 6.23375 8.405 6 9 C6 8.01 6 7.02 6 6 C5.34 6 4.68 6 4 6 C3.67 5.34 3.34 4.68 3 4 C2.01 3.67 1.02 3.34 0 3 C0 2.01 0 1.02 0 0 Z " fill="#36BF7F" transform="translate(675,420)"/>
<path d="M0 0 C0.66 0.33 1.32 0.66 2 1 C0.8125 3.4375 0.8125 3.4375 -1 6 C-3.6875 6.8125 -3.6875 6.8125 -6 7 C-6 6.34 -6 5.68 -6 5 C-4.04072937 3.2856382 -2.04119788 1.61594832 0 0 Z " fill="#30BF7E" transform="translate(627,417)"/>
<path d="M0 0 C0.66 0 1.32 0 2 0 C2.12375 0.969375 2.2475 1.93875 2.375 2.9375 C2.58125 3.948125 2.7875 4.95875 3 6 C3.66 6.33 4.32 6.66 5 7 C4.01 7 3.02 7 2 7 C2 6.34 2 5.68 2 5 C0.35 5 -1.3 5 -3 5 C-1.625 2.5 -1.625 2.5 0 0 Z " fill="#C0FAE2" transform="translate(765,512)"/>
<path d="M0 0 C0.66 0 1.32 0 2 0 C2 0.66 2 1.32 2 2 C2.66 2 3.32 2 4 2 C4 2.66 4 3.32 4 4 C3.01 4 2.02 4 1 4 C1.33 5.32 1.66 6.64 2 8 C1.34 8 0.68 8 0 8 C-1.125 2.25 -1.125 2.25 0 0 Z " fill="#23BA75" transform="translate(512,509)"/>
<path d="M0 0 C0.33 0.66 0.66 1.32 1 2 C-0.1875 5.0625 -0.1875 5.0625 -2 8 C-4.1875 8.875 -4.1875 8.875 -6 9 C-4.16172132 5.84866512 -2.24027294 2.88035092 0 0 Z " fill="#32BC7A" transform="translate(508,464)"/>
<path d="M0 0 C-0.33 1.32 -0.66 2.64 -1 4 C-1 3.34 -1 2.68 -1 2 C-3.97 4.475 -3.97 4.475 -7 7 C-7 3 -7 3 -5.75 1.25 C-4 0 -4 0 0 0 Z " fill="#1CBA6D" transform="translate(534,457)"/>
<path d="M0 0 C1.10844919 3.32534757 0.84454356 5.62182575 0 9 C-1.32 9.33 -2.64 9.66 -4 10 C-3.67 8.68 -3.34 7.36 -3 6 C-2.34 6 -1.68 6 -1 6 C-0.67 4.02 -0.34 2.04 0 0 Z " fill="#38C180" transform="translate(612,436)"/>
<path d="M0 0 C0.495 0.309375 0.99 0.61875 1.5 0.9375 C4.97986781 2.41644382 8.24028509 2.62402851 12 3 C12 3.33 12 3.66 12 4 C10.37675914 4.22162329 8.751279 4.42689803 7.125 4.625 C5.76761719 4.79902344 5.76761719 4.79902344 4.3828125 4.9765625 C3.59648437 4.98429687 2.81015625 4.99203125 2 5 C1.34 4.34 0.68 3.68 0 3 C0 2.01 0 1.02 0 0 Z " fill="#E1E1E1" transform="translate(388,496)"/>
<path d="M0 0 C1.32 0.33 2.64 0.66 4 1 C2.35 2.98 0.7 4.96 -1 7 C-1.66 6.67 -2.32 6.34 -3 6 C-2.67 5.01 -2.34 4.02 -2 3 C-1.34 3 -0.68 3 0 3 C0 2.01 0 1.02 0 0 Z " fill="#17B76C" transform="translate(508,483)"/>
<path d="M0 0 C-0.33 1.32 -0.66 2.64 -1 4 C-2.98 4 -4.96 4 -7 4 C-7 3.34 -7 2.68 -7 2 C-4 0 -4 0 0 0 Z " fill="#16BE6F" transform="translate(616,466)"/>
<path d="M0 0 C0.66 0.33 1.32 0.66 2 1 C1.3125 2.9375 1.3125 2.9375 0 5 C-2.625 5.75 -2.625 5.75 -5 6 C-3.86695008 2.60085025 -2.87481525 1.94745549 0 0 Z " fill="#C4F6E1" transform="translate(587,422)"/>
<path d="M0 0 C2.5654594 2.5654594 2.54046087 4.47686668 3 8 C0.69 7.67 -1.62 7.34 -4 7 C-3.01 6.34 -2.02 5.68 -1 5 C-0.27034634 2.43717258 -0.27034634 2.43717258 0 0 Z " fill="#A2F1CC" transform="translate(669,510)"/>
<path d="M0 0 C0.98120464 3.05263664 0.98120464 4.94736336 0 8 C-0.66 8 -1.32 8 -2 8 C-2 8.66 -2 9.32 -2 10 C-2.66 10 -3.32 10 -4 10 C-2.66666667 6.66666667 -1.33333333 3.33333333 0 0 Z " fill="#3CBE7E" transform="translate(588,486)"/>
<path d="M0 0 C2.26609984 4.53219967 1.92735976 6.17772925 1 11 C0.34 11 -0.32 11 -1 11 C-0.67 7.37 -0.34 3.74 0 0 Z " fill="#0FB96A" transform="translate(532,461)"/>
<path d="M0 0 C1.5 1.0625 1.5 1.0625 3 3 C3.1875 6.6875 3.1875 6.6875 3 10 C-0.00617269 6.99382731 0.40414684 4.17618402 0 0 Z " fill="#1EB66D" transform="translate(455,459)"/>
<path d="M0 0 C-0.33 0.99 -0.66 1.98 -1 3 C-4.63 3 -8.26 3 -12 3 C-12 2.67 -12 2.34 -12 2 C-10.37548581 1.66430703 -8.75037083 1.3315204 -7.125 1 C-6.22007812 0.814375 -5.31515625 0.62875 -4.3828125 0.4375 C-2 0 -2 0 0 0 Z " fill="#C9F9E5" transform="translate(562,516)"/>
<path d="M0 0 C1 3 1 3 0.375 5.125 C-1 7 -1 7 -3.625 7.75 C-4.800625 7.87375 -4.800625 7.87375 -6 8 C-4.02 5.36 -2.04 2.72 0 0 Z " fill="#2DBB78" transform="translate(745,493)"/>
<path d="M0 0 C0.66 0 1.32 0 2 0 C3.625 2.5 3.625 2.5 5 5 C4.01 5.66 3.02 6.32 2 7 C0.5393715 4.35261084 0 3.10551666 0 0 Z " fill="#0FB96A" transform="translate(458,470)"/>
<path d="M0 0 C1.32 0.66 2.64 1.32 4 2 C3.34 2 2.68 2 2 2 C2 3.32 2 4.64 2 6 C0.68 5.67 -0.64 5.34 -2 5 C-1.34 3.35 -0.68 1.7 0 0 Z " fill="#848484" transform="translate(402,463)"/>
<path d="M0 0 C0.66 0.33 1.32 0.66 2 1 C-1.625 6.875 -1.625 6.875 -5 8 C-3.8141763 4.62496331 -2.72426311 2.35277269 0 0 Z " fill="#BBF4DB" transform="translate(632,435)"/>
<path d="M0 0 C2.475 0.495 2.475 0.495 5 1 C5 3.31 5 5.62 5 8 C4.01 8.33 3.02 8.66 2 9 C2 8.34 2 7.68 2 7 C2.66 7 3.32 7 4 7 C2.92598892 4.08482708 2.22189824 2.22189824 0 0 Z " fill="#C7F7E1" transform="translate(748,413)"/>
<path d="M0 0 C0.66 0 1.32 0 2 0 C1.25 5.75 1.25 5.75 -1 8 C-1.04241723 5.66705225 -1.04092937 3.33297433 -1 1 C-0.67 0.67 -0.34 0.34 0 0 Z " fill="#43C385" transform="translate(443,490)"/>
<path d="M0 0 C0 3 0 3 -1 6 C-2.65 6.33 -4.3 6.66 -6 7 C-4.02 4.69 -2.04 2.38 0 0 Z " fill="#3AC182" transform="translate(850,483)"/>
<path d="M0 0 C0.33 0.99 0.66 1.98 1 3 C-0.4375 5.1875 -0.4375 5.1875 -2 7 C-2.99 6.67 -3.98 6.34 -5 6 C-3.35 4.02 -1.7 2.04 0 0 Z " fill="#41C085" transform="translate(751,486)"/>
<path d="M0 0 C0.33 0 0.66 0 1 0 C1.36923077 6.52307692 1.36923077 6.52307692 -0.5 8.9375 C-0.995 9.288125 -1.49 9.63875 -2 10 C-1.125 2.25 -1.125 2.25 0 0 Z " fill="#2EBB79" transform="translate(432,480)"/>
<path d="M0 0 C0.33 0.66 0.66 1.32 1 2 C-0.4375 4.625 -0.4375 4.625 -2 7 C-2.99 6.67 -3.98 6.34 -5 6 C-3.35 4.02 -1.7 2.04 0 0 Z " fill="#BDF4DC" transform="translate(516,478)"/>
<path d="M0 0 C1.98 0.99 1.98 0.99 4 2 C4 4.97 4 7.94 4 11 C3.67 11 3.34 11 3 11 C2.87625 9.9275 2.7525 8.855 2.625 7.75 C2.10356064 4.62136385 1.59911746 2.66519576 0 0 Z " fill="#32BA7B" transform="translate(866,479)"/>
<path d="M0 0 C0.66 0 1.32 0 2 0 C1.34 2.64 0.68 5.28 0 8 C-0.33 7.01 -0.66 6.02 -1 5 C-1.66 4.67 -2.32 4.34 -3 4 C-1.625 2 -1.625 2 0 0 Z " fill="#A7F7D1" transform="translate(531,459)"/>
</svg>
